# xmcd CD database file
#
# Track frame offsets:
#	150
#	17076
#	40989
#	57851
#	118489
#	158990
#	176985
#	201562
#	240756
#	284602
#
# Disc length: 4144 seconds
#
# Revision: 0
# Processed by: cddbd v1.5.2PL0 Copyright (c) Steve Scherf et al.
# Submitted via: CDex 1.51
#
DISCID=95102e0a
DTITLE=Phil Ranelin - Sounds From The Village - Phil Ranelin Anthology
DYEAR=2004
DGENRE=Jazz
TTITLE0=Vibes From The Tribes
TTITLE1=For The Children
TTITLE2=Sounds From The Village
TTITLE3=The Time Is Now For Change
TTITLE4=Beyond A Memory
TTITLE5=Vibes From The Tribes
TTITLE6=Full Moon
TTITLE7=Of Times Gone By
TTITLE8=A Close Encounter Of The Very Best Kind
TTITLE9=Love Dream
EXTD=YEAR: 2004
EXTT0=
EXTT1=
EXTT2=
EXTT3=
EXTT4=
EXTT5=
EXTT6=
EXTT7=
EXTT8=
EXTT9=
PLAYORDER=
